#!OML:ASF G:\ViconDB\ViconDB\414\test\team2\shane.ASF
:FULLY-SPECIFIED
:DEGREES
135
root 8.03304 16.2707 21.1559 -4.97743 -0.45387 -4.60974
lowerback 11.6908 4.4308 6.78257
upperback 4.69897 6.63499 1.66479
thorax -1.01775 3.37616 -2.83215
lowerneck -11.1547 -7.59453 -6.54887
upperneck 28.9662 -11.5258 7.33372
head 12.2116 -4.97431 2.24347
rclavicle -1.30751e-013 3.18055e-014
rhumerus -23.2108 16.0239 -97.3937
rradius 104.241
rwrist 39.5798
rhand -52.3242 -32.264
rfingers 7.12502
rthumb -24.8182 -60.6734
lclavicle -1.30751e-013 3.18055e-014
lhumerus -76.3771 -38.6581 95.8672
lradius 59.2028
lwrist -13.2531
lhand -46.3492 3.6775
lfingers 7.12502
lthumb -19.0815 32.7615
rfemur 18.6989 -6.80755 23.5181
rtibia 27.7179
rfoot -17.196 -3.5487
rtoes -21.0601
lfemur -27.4949 8.04439 -7.23384
ltibia 78.7941
lfoot -21.1331 -8.53808
ltoes -8.28302
136
root 8.05108 16.3844 21.6681 -5.31293 -0.25061 -4.47377
lowerback 11.4993 4.59577 6.82854
upperback 4.52344 6.85088 1.55598
thorax -1.0581 3.48081 -2.98202
lowerneck -11.0281 -7.79631 -7.43392
upperneck 29.8128 -11.89 7.95344
head 12.6763 -5.13953 2.58027
rclavicle -4.98453e-014 -3.97569e-016
rhumerus -24.546 16.5091 -97.3535
rradius 106.335
rwrist 40.3867
rhand -52.2828 -30.9871
rfingers 7.12502
rthumb -24.7786 -59.4019
lclavicle -4.98453e-014 -3.97569e-016
lhumerus -77.7537 -38.0111 95.5454
lradius 60.1716
lwrist -12.9457
lhand -46.4735 3.598
lfingers 7.12502
lthumb -19.2011 32.6701
rfemur 22.3822 -6.00394 23.0632
rtibia 23.5235
rfoot -12.7384 -1.68938
rtoes -21.2789
lfemur -28.4829 7.7282 -8.60182
ltibia 74.4557
lfoot -20.0182 -8.81508
ltoes -8.90726
137
root 8.06726 16.4986 22.1839 -5.55201 -0.072709 -4.39507
lowerback 11.2217 4.71915 6.99954
upperback 4.35691 7.01519 1.37398
thorax -1.02065 3.56474 -3.2594
lowerneck -10.9529 -7.93966 -7.14917
upperneck 30.4075 -12.0652 7.4567
head 12.8649 -5.2326 2.32329
rclavicle 4.36829e-014 -4.53229e-014
rhumerus -24.546 16.5091 -97.3535
rradius 106.335
rwrist 40.3867
rhand -52.2828 -30.9871
rfingers 7.12502
rthumb -24.7786 -59.4019
lclavicle 4.36829e-014 -4.53229e-014
lhumerus -78.83 -37.3295 94.9545
lradius 61.2638
lwrist -12.6611
lhand -46.3892 3.54362
lfingers 7.12502
lthumb -19.12 32.6238
rfemur 25.9834 -5.77789 22.3935
rtibia 19.1455
rfoot -7.43172 -0.0900156
rtoes -20.8377
lfemur -29.2548 7.55891 -9.7578
ltibia 69.8519
lfoot -18.274 -9.51208
ltoes -9.54943
138
root 8.08789 16.6221 22.7069 -5.73914 -0.0660087 -4.6202
lowerback 10.9177 4.78966 7.63649
upperback 4.1699 7.15413 1.17716
thorax -0.928509 3.64202 -3.79837
lowerneck -10.9473 -8.04841 -7.79025
upperneck 31.1145 -12.3425 8.06786
head 13.2916 -5.33584 2.62934
rclavicle -1.26725e-015 1.47101e-014
rhumerus -27.464 17.6562 -97.6494
rradius 109.888
rwrist 40.7879
rhand -51.383 -27.304
rfingers 7.12502
rthumb -23.9159 -55.8347
lclavicle -1.26725e-015 1.47101e-014
lhumerus -79.695 -36.424 94.0791
lradius 62.3053
lwrist -13.0459
lhand -46.2546 3.64556
lfingers 7.12502
lthumb -18.9906 32.7385
rfemur 29.4428 -5.4859 22.0829
rtibia 14.6756
rfoot -1.54625 1.33597
rtoes -21.358
lfemur -29.6795 7.57957 -10.4215
ltibia 65.0301
lfoot -16.4234 -10.4201
ltoes -10.6541
139
root 8.10757 16.7513 23.229 -5.72557 -0.165699 -4.61378
lowerback 10.3937 4.93827 7.77576
upperback 4.03791 7.32305 1.0496
thorax -0.725677 3.73448 -3.97078
lowerneck -11.2429 -8.14968 -7.62778
upperneck 31.7686 -12.4293 7.61573
head 13.5971 -5.38513 2.40602
rclavicle 1.4151e-014 -2.45499e-014
rhumerus -29.036 18.5414 -97.7811
rradius 111.418
rwrist 40.4133
rhand -50.887 -25.7519
rfingers 7.12502
rthumb -23.4402 -54.3442
lclavicle 1.4151e-014 -2.45499e-014
lhumerus -80.2802 -35.3378 93.3336
lradius 63.3969
lwrist -13.5898
lhand -46.4288 3.5555
lfingers 7.12502
lthumb -19.1581 32.6319
rfemur 32.6647 -5.44661 21.3727
rtibia 9.89532
rfoot 5.06407 2.60841
rtoes -19.8846
lfemur -30.0116 7.70266 -11.2229
ltibia 60.2054
lfoot -14.3753 -11.3062
ltoes -10.8663
140
root 8.12057 16.8705 23.7517 -5.75154 -0.320805 -4.8138
lowerback 9.9049 5.08164 8.0036
upperback 3.91063 7.49643 0.999359
thorax -0.533126 3.82888 -4.11223
lowerneck -11.5551 -8.2125 -7.83109
upperneck 32.396 -12.5469 7.69671
head 13.9795 -5.42504 2.44662
rclavicle -9.7566e-014 3.01159e-014
rhumerus -30.6719 19.3738 -97.9041
rradius 112.734
rwrist 39.8213
rhand -50.2304 -24.0542
rfingers 7.12502
rthumb -22.8102 -52.7255
lclavicle 1.4151e-014 -2.45499e-014
lhumerus -80.2802 -35.3378 93.3336
lradius 63.3969
lwrist -13.5898
lhand -46.4288 3.5555
lfingers 7.12502
lthumb -19.1581 32.6319
rfemur 35.8734 -5.39909 20.9704
rtibia 5.00324
rfoot 12.0611 3.48962
rtoes -17.8057
lfemur -30.1295 8.04239 -11.666
ltibia 55.6451
lfoot -12.7834 -12.3126
ltoes -10.8714
141
root 8.13882 16.9624 24.2631 -5.86282 -0.412782 -5.19913
lowerback 9.6414 5.11946 8.39729
upperback 3.76439 7.56538 0.982582
thorax -0.477554 3.866 -4.3263
lowerneck -11.7373 -8.23053 -8.00787
upperneck 32.7732 -12.6275 7.88816
head 14.231 -5.44318 2.53676
rclavicle 8.1421e-014 5.09386e-015
rhumerus -32.4678 20.3997 -98.1004
rradius 113.776
rwrist 38.9903
rhand -49.6777 -22.8045
rfingers 7.12502
rthumb -22.2798 -51.5401
lclavicle 1.4151e-014 -2.45499e-014
lhumerus -80.2802 -35.3378 93.3336
lradius 63.3969
lwrist -13.5898
lhand -46.4288 3.5555
lfingers 7.12502
lthumb -19.1581 32.6319
rfemur 38.6588 -5.46526 20.821
rtibia 1.03841
rfoot 18.3023 4.44738
rtoes -14.9608
lfemur -30.2329 8.77772 -12.0064
ltibia 51.6107
lfoot -11.7168 -13.5607
ltoes -11.1762
142
root 8.14717 17.0271 24.7698 -6.06919 -0.606385 -5.70754
lowerback 9.52126 5.20059 8.81988
upperback 3.60689 7.7083 1.00303
thorax -0.502291 3.93547 -4.538
lowerneck -11.9602 -8.26969 -7.9985
upperneck 33.1824 -12.7438 7.94713
head 14.4862 -5.46833 2.53557
rclavicle 4.8842e-014 1.40889e-014
rhumerus -34.3691 21.2045 -98.3938
rradius 114.68
rwrist 38.119
rhand -49.2508 -21.7668
rfingers 7.12502
rthumb -21.8699 -50.5509
lclavicle 1.4151e-014 -2.45499e-014
lhumerus -80.2802 -35.3378 93.3336
lradius 63.3969
lwrist -13.5898
lhand -46.4288 3.5555
lfingers 7.12502
lthumb -19.1581 32.6319
rfemur 38.3773 -5.50456 20.825
rtibia 3.97254
rfoot 20.2128 4.58969
rtoes -9.65713
lfemur -30.242 9.66518 -12.0364
ltibia 48.3358
lfoot -11.0231 -14.491
ltoes -11.6597
143
root 8.14888 17.0674 25.2708 -6.39749 -0.811832 -6.2912
lowerback 9.3794 5.23154 9.15588
upperback 3.59876 7.76678 1.10241
thorax -0.392045 3.97188 -4.60312
lowerneck -12.0289 -8.33241 -9.282
upperneck 33.3335 -13.092 9.53882
head 14.8825 -5.57238 3.34708
rclavicle -4.50372e-014 1.27222e-014
rhumerus -36.106 22.206 -98.5472
rradius 115.181
rwrist 37.3912
rhand -49.1265 -21.3703
rfingers 7.12502
rthumb -21.7505 -50.1682
lclavicle 1.4151e-014 -2.45499e-014
lhumerus -80.2802 -35.3378 93.3336
lradius 63.3969
lwrist -13.5898
lhand -46.4288 3.5555
lfingers 7.12502
lthumb -19.1581 32.6319
rfemur 37.5481 -5.58237 20.9242
rtibia 8.49169
rfoot 19.5947 3.73544
rtoes -4.20911
lfemur -30.1756 10.8565 -11.975
ltibia 45.8916
lfoot -10.5999 -15.1446
ltoes -12.3604
144
root 8.14471 17.0816 25.766 -6.85797 -0.933442 -6.80549
lowerback 9.3868 5.25051 9.43481
upperback 3.60605 7.81809 1.14871
thorax -0.348328 4.00245 -4.70758
lowerneck -12.3295 -8.21818 -8.06733
upperneck 33.3446 -12.8964 8.61407
head 14.733 -5.44368 2.78174
rclavicle -2.92462e-014 1.68967e-014
rhumerus -37.9176 22.8791 -98.7806
rradius 115.439
rwrist 36.8288
rhand -49.0038 -20.7725
rfingers 7.12502
rthumb -21.6327 -49.5841
lclavicle 1.4151e-014 -2.45499e-014
lhumerus -80.2802 -35.3378 93.3336
lradius 63.3969
lwrist -13.5898
lhand -46.4288 3.5555
lfingers 7.12502
lthumb -19.1581 32.6319
rfemur 36.7776 -5.79358 20.999
rtibia 13.1182
rfoot 16.3647 2.27381
rtoes -5.16165
lfemur -30.0556 12.3606 -11.9386
ltibia 44.194
lfoot -9.9816 -15.8467
ltoes -12.5025
145
root 8.14811 17.0733 26.2631 -7.36887 -1.2035 -7.17145
lowerback 9.38659 5.25148 9.61048
upperback 3.63803 7.83336 1.14883
thorax -0.287319 4.01638 -4.79969
lowerneck -12.2367 -8.25772 -9.23716
upperneck 33.3082 -13.2771 10.3306
head 15.0207 -5.54411 3.63074
rclavicle -6.55492e-014 1.39149e-015
rhumerus -39.7246 23.667 -99.1582
rradius 115.31
rwrist 36.5619
rhand -48.8724 -20.9073
rfingers 7.12502
rthumb -21.5065 -49.7333
lclavicle 1.4151e-014 -2.45499e-014
lhumerus -80.2802 -35.3378 93.3336
lradius 63.3969
lwrist -13.5898
lhand -46.4288 3.5555
lfingers 7.12502
lthumb -19.1581 32.6319
rfemur 36.0506 -6.01568 20.7675
rtibia 17.7139
rfoot 12.8677 0.268897
rtoes -8.49306
lfemur -29.6749 14.0735 -12.0916
ltibia 43.0184
lfoot -9.30153 -15.9947
ltoes -12.5192
146
root 8.15057 17.0619 26.7612 -7.78066 -1.37229 -7.35929
lowerback 9.39291 5.20881 9.42684
upperback 3.55004 7.7688 1.18629
thorax -0.42475 3.97238 -4.66713
lowerneck -12.2722 -8.13464 -9.12142
upperneck 33.3644 -13.2025 10.5126
head 15.0531 -5.47547 3.70347
rclavicle 4.02539e-015 1.76918e-014
rhumerus -41.7316 24.5029 -99.5522
rradius 114.853
rwrist 36.2097
rhand -48.852 -20.7619
rfingers 7.12502
rthumb -21.4868 -49.5902
lclavicle 1.4151e-014 -2.45499e-014
lhumerus -80.2802 -35.3378 93.3336
lradius 63.3969
lwrist -13.5898
lhand -46.4288 3.5555
lfingers 7.12502
lthumb -19.1581 32.6319
rfemur 35.0685 -6.16724 20.3784
rtibia 22.2718
rfoot 10.5554 -1.54251
rtoes -7.50493
lfemur -29.2961 16.1523 -12.4009
ltibia 42.1376
lfoot -9.00197 -16.9383
ltoes -12.518
147
root 8.14717 17.0345 27.2582 -8.13814 -1.41953 -7.31986
lowerback 9.23252 5.13498 8.86011
upperback 3.52225 7.60868 1.23106
thorax -0.473971 3.88372 -4.29323
lowerneck -12.5081 -7.94334 -8.23947
upperneck 33.4459 -12.916 9.85159
head 14.9614 -5.31633 3.32069
rclavicle -1.98785e-014 1.90833e-014
rhumerus -43.5674 25.425 -99.8509
rradius 114.041
rwrist 35.7969
rhand -49.0997 -21.1114
rfingers 7.12502
rthumb -21.7247 -49.9123
lclavicle 1.4151e-014 -2.45499e-014
lhumerus -80.2802 -35.3378 93.3336
lradius 63.3969
lwrist -13.5898
lhand -46.4288 3.5555
lfingers 7.12502
lthumb -19.1581 32.6319
rfemur 33.8644 -6.30963 19.9239
rtibia 26.8906
rfoot 8.50535 -3.32292
rtoes -7.24851
lfemur -28.7392 17.8445 -12.808
ltibia 41.3704
lfoot -7.94527 -18.1447
ltoes -12.8362
